<svg version="1.2" xmlns="http://www.w3.org/2000/svg" viewBox="0 0 40 42" width="40" height="42"><defs><clipPath clipPathUnits="userSpaceOnUse" id="cp1"><path d="m-980-216h2140v486h-2140z"/></clipPath></defs><style>.a{fill:#fff}</style><g clip-path="url(#cp1)"><path fill-rule="evenodd" d="m20 1c11 0 20 9 20 20 0 11-9 20-20 20-11 0-20-9-20-20 0-11 9-20 20-20z"/><path class="a" d="m22.1 19.6l7.3-8.4h-1.7l-6.3 7.3-5-7.3h-5.8l7.6 11-7.6 8.8h1.7l6.6-7.7 5.3 7.7h5.8l-7.9-11.4zm-2.3 2.7l-0.8-1.1-6.1-8.7h2.6l5 7.1 0.7 1 6.5 9.2h-2.7l-5.2-7.5z"/></g></svg>