<svg version="1.2" xmlns="http://www.w3.org/2000/svg" viewBox="0 0 40 42" width="40" height="42"><defs><clipPath clipPathUnits="userSpaceOnUse" id="cp1"><path d="m-1035-216h2140v486h-2140z"/></clipPath></defs><style>.a{fill:#00b901}.b{fill:#fff}</style><g clip-path="url(#cp1)"><path fill-rule="evenodd" class="a" d="m20 1c11 0 20 9 20 20 0 11-9 20-20 20-11 0-20-9-20-20 0-11 9-20 20-20z"/><path class="b" d="m32.2 20.6c0-5.5-5.4-9.9-12-9.9-6.6 0-12 4.4-12 9.9 0 4.8 4.3 8.9 10 9.6 0.4 0.1 0.9 0.3 1.1 0.6 0.1 0.3 0.1 0.8 0 1.1 0 0-0.1 0.9-0.2 1.1 0 0.3-0.2 1.2 1.1 0.6 1.3-0.5 6.9-4.1 9.4-7 1.7-1.9 2.6-3.9 2.6-6zm-16.2 2.8c0 0.2-0.1 0.3-0.3 0.3h-3.3q-0.1 0-0.2-0.1 0 0 0 0 0 0 0 0-0.1-0.1-0.1-0.2v-5.2c0-0.2 0.1-0.3 0.3-0.3h0.8c0.1 0 0.2 0.1 0.2 0.3v4.2h2.3c0.2 0 0.3 0.1 0.3 0.2zm2 0c0 0.1-0.1 0.2-0.3 0.2h-0.8c-0.1 0-0.2-0.1-0.2-0.2v-5.3c0-0.1 0.1-0.2 0.2-0.2h0.8c0.2 0 0.3 0.1 0.3 0.2zm5.8 0c0 0.2-0.1 0.3-0.3 0.3h-0.8q0 0-0.1 0 0 0 0 0 0 0 0 0 0 0 0-0.1 0 0 0 0 0 0 0 0 0 0 0 0 0 0 0 0 0 0 0 0-0.1 0-0.1 0l-2.4-3.3v3.1c0 0.2-0.1 0.3-0.2 0.3h-0.9c-0.1 0-0.2-0.1-0.2-0.3v-5.2c0-0.2 0.1-0.3 0.2-0.3h0.9q0 0 0 0 0 0 0 0 0 0 0 0 0 0 0 0 0 0 0 0 0 0 0 0 0 0 0.1 0 0 0 0 0 0 0 0 0 0 0 0 0.1 0 0 0 0 0 0 0 0 0 0 0 0 0 0 0 0 0 0 0 0 0 0 0 0 0 0 0 0 0 0 0.1 0 0 0 0 0l2.4 3.3v-3.1c0-0.2 0.1-0.3 0.2-0.3h0.8c0.2 0 0.3 0.1 0.3 0.3zm4.6-4.5c0 0.2-0.1 0.3-0.2 0.3h-2.3v0.9h2.3c0.1 0 0.2 0.1 0.2 0.2v0.9c0 0.1-0.1 0.2-0.2 0.2h-2.3v0.9h2.3c0.1 0 0.2 0.1 0.2 0.2v0.9c0 0.1-0.1 0.2-0.2 0.2h-3.4q-0.1 0-0.1-0.1 0 0 0 0 0 0 0 0-0.1 0-0.1-0.1v-5.3q0-0.1 0.1-0.2 0 0 0 0 0 0 0 0 0 0 0.1 0h3.4c0.1 0 0.2 0.1 0.2 0.2z"/></g></svg>